<svg xmlns="http://www.w3.org/2000/svg" width="1920" height="1080" viewBox="0 0 1920 1080" font-family="-apple-system, 'Segoe UI', Roboto, sans-serif">
<defs>
<marker id="ah-flow" viewBox="0 0 10 10" refX="9.2" refY="5" markerWidth="6" markerHeight="6" orient="auto-start-reverse" markerUnits="strokeWidth"><path d="M0.6,0.9 L9.4,5 L0.6,9.1 z" fill="#2C5F9E"/></marker>
<marker id="ah-danger" viewBox="0 0 10 10" refX="9.2" refY="5" markerWidth="6" markerHeight="6" orient="auto-start-reverse" markerUnits="strokeWidth"><path d="M0.6,0.9 L9.4,5 L0.6,9.1 z" fill="#B3261E"/></marker>
<marker id="ah-gate" viewBox="0 0 10 10" refX="9.2" refY="5" markerWidth="6" markerHeight="6" orient="auto-start-reverse" markerUnits="strokeWidth"><path d="M0.6,0.9 L9.4,5 L0.6,9.1 z" fill="#0B6B4F"/></marker>
<marker id="ah-grey" viewBox="0 0 10 10" refX="9.2" refY="5" markerWidth="5" markerHeight="5" orient="auto-start-reverse" markerUnits="strokeWidth"><path d="M0.6,0.9 L9.4,5 L0.6,9.1 z" fill="#78889A"/></marker>
<filter id="gateglow" x="-14%" y="-14%" width="128%" height="128%"><feDropShadow dx="0" dy="3" stdDeviation="8" flood-color="#0B6B4F" flood-opacity="0.22"/></filter>
</defs>
<rect width="1920" height="1080" fill="#FAFAFA"/>
<text x="18.0" y="56.0" font-size="44" font-weight="700" fill="#16202B" data-maxw="1000" data-tag="title">CivicNexus — as actually deployed</text>
<text x="1902.0" y="54.0" font-size="25" fill="#4B5A6B" text-anchor="end" data-maxw="760" data-tag="subtitle">Governed multi-agent permit casework on Google Cloud</text>
<line x1="18" y1="70" x2="1902" y2="70" stroke="#E1E8EE" stroke-width="2"/>
<rect x="10.0" y="84.0" width="294.0" height="668.0" rx="16" fill="#FFFFFF" stroke="#D5DEE7" stroke-width="2"/>
<path d="M11 140 L11 101 A16,16 0 0 1 27 85 L287 85 A16,16 0 0 1 303 101 L303 140 Z" fill="#2E5A85"/>
<circle cx="40" cy="112" r="17" fill="#FFFFFF"/>
<text x="40.0" y="121.0" font-size="24" font-weight="700" fill="#2E5A85" text-anchor="middle">1</text>
<text x="180.0" y="123.0" font-size="32" font-weight="700" fill="#FFFFFF" text-anchor="middle" letter-spacing="1.4" data-maxw="228" data-tag="band1">INTAKE</text>
<rect x="332.0" y="84.0" width="318.0" height="668.0" rx="16" fill="#FFFFFF" stroke="#D5DEE7" stroke-width="2"/>
<path d="M333 140 L333 101 A16,16 0 0 1 349 85 L633 85 A16,16 0 0 1 649 101 L649 140 Z" fill="#2E5A85"/>
<circle cx="362" cy="112" r="17" fill="#FFFFFF"/>
<text x="362.0" y="121.0" font-size="24" font-weight="700" fill="#2E5A85" text-anchor="middle">2</text>
<text x="514.0" y="123.0" font-size="32" font-weight="700" fill="#FFFFFF" text-anchor="middle" letter-spacing="1.4" data-maxw="252" data-tag="band2">SCREEN + OCR</text>
<rect x="678.0" y="84.0" width="426.0" height="668.0" rx="16" fill="#FFFFFF" stroke="#D5DEE7" stroke-width="2"/>
<path d="M679 140 L679 101 A16,16 0 0 1 695 85 L1087 85 A16,16 0 0 1 1103 101 L1103 140 Z" fill="#2E5A85"/>
<circle cx="708" cy="112" r="17" fill="#FFFFFF"/>
<text x="708.0" y="121.0" font-size="24" font-weight="700" fill="#2E5A85" text-anchor="middle">3</text>
<text x="914.0" y="123.0" font-size="32" font-weight="700" fill="#FFFFFF" text-anchor="middle" letter-spacing="1.4" data-maxw="360" data-tag="band3">FLEET</text>
<rect x="1132.0" y="84.0" width="380.0" height="668.0" rx="16" fill="#FFFFFF" stroke="#D5DEE7" stroke-width="2"/>
<path d="M1133 140 L1133 101 A16,16 0 0 1 1149 85 L1495 85 A16,16 0 0 1 1511 101 L1511 140 Z" fill="#2E5A85"/>
<circle cx="1162" cy="112" r="17" fill="#FFFFFF"/>
<text x="1162.0" y="121.0" font-size="24" font-weight="700" fill="#2E5A85" text-anchor="middle">4</text>
<text x="1345.0" y="123.0" font-size="32" font-weight="700" fill="#FFFFFF" text-anchor="middle" letter-spacing="1.4" data-maxw="314" data-tag="band4">VERIFIER</text>
<rect x="1540.0" y="84.0" width="370.0" height="668.0" rx="16" fill="#F1FAF5" stroke="#0B6B4F" stroke-width="4" filter="url(#gateglow)"/>
<path d="M1541 140 L1541 101 A16,16 0 0 1 1557 85 L1893 85 A16,16 0 0 1 1909 101 L1909 140 Z" fill="#0B6B4F"/>
<circle cx="1570" cy="112" r="17" fill="#FFFFFF"/>
<text x="1570.0" y="121.0" font-size="24" font-weight="700" fill="#0B6B4F" text-anchor="middle">5</text>
<text x="1748.0" y="123.0" font-size="34" font-weight="700" fill="#FFFFFF" text-anchor="middle" letter-spacing="1.4" data-maxw="304" data-tag="band5">HUMAN GATE</text>
<rect x="22.0" y="212.0" width="270.0" height="154.0" rx="12" fill="#FFFFFF" stroke="#B7C5D4" stroke-width="2"/>
<text x="157.0" y="250.4" font-size="27" font-weight="700" fill="#16202B" text-anchor="middle" data-maxw="238" data-tag="Application in">Application in</text>
<text x="157.0" y="280.4" font-size="26" fill="#4B5A6B" text-anchor="middle" data-maxw="238" data-tag="Application in">Gmail inbox</text>
<text x="157.0" y="312.4" font-size="26" fill="#4B5A6B" text-anchor="middle" data-maxw="238" data-tag="Application in">receive-only IMAP</text>
<text x="157.0" y="344.4" font-size="26" fill="#4B5A6B" text-anchor="middle" data-maxw="238" data-tag="Application in">+ clerk console form</text>
<rect x="22.0" y="400.0" width="270.0" height="122.0" rx="12" fill="#EEF3F9" stroke="#A6BACE" stroke-width="2"/>
<text x="157.0" y="438.4" font-size="27" font-weight="700" fill="#16202B" text-anchor="middle" data-maxw="238" data-tag="inbox/ queue">inbox/ queue</text>
<text x="157.0" y="468.4" font-size="26" fill="#4B5A6B" text-anchor="middle" data-maxw="238" data-tag="inbox/ queue">Firestore</text>
<text x="157.0" y="500.4" font-size="26" fill="#4B5A6B" text-anchor="middle" data-maxw="238" data-tag="inbox/ queue">write-once queue</text>
<rect x="22.0" y="556.0" width="270.0" height="122.0" rx="12" fill="#FFFFFF" stroke="#B7C5D4" stroke-width="2"/>
<text x="157.0" y="594.4" font-size="27" font-weight="700" fill="#16202B" text-anchor="middle" data-maxw="238" data-tag="inbox_watcher">inbox_watcher</text>
<text x="157.0" y="624.4" font-size="26" fill="#4B5A6B" text-anchor="middle" data-maxw="238" data-tag="inbox_watcher">serial consumer</text>
<text x="157.0" y="656.4" font-size="26" fill="#4B5A6B" text-anchor="middle" data-maxw="238" data-tag="inbox_watcher">one case at a time</text>
<line x1="157.0" y1="366.0" x2="157.0" y2="400.0" stroke="#2C5F9E" stroke-width="3" stroke-linecap="round" marker-end="url(#ah-flow)"/>
<line x1="157.0" y1="522.0" x2="157.0" y2="556.0" stroke="#2C5F9E" stroke-width="3" stroke-linecap="round" marker-end="url(#ah-flow)"/>
<rect x="344.0" y="154.0" width="294.0" height="154.0" rx="12" fill="#FFFFFF" stroke="#B7C5D4" stroke-width="2"/>
<text x="491.0" y="192.4" font-size="27" font-weight="700" fill="#16202B" text-anchor="middle" data-maxw="262" data-tag="Attachment pipeline">Attachment pipeline</text>
<text x="491.0" y="222.4" font-size="26" fill="#4B5A6B" text-anchor="middle" data-maxw="262" data-tag="Attachment pipeline">byte-screen first</text>
<text x="491.0" y="254.4" font-size="26" fill="#4B5A6B" text-anchor="middle" data-maxw="262" data-tag="Attachment pipeline">Cloud Vision OCR</text>
<text x="491.0" y="286.4" font-size="26" fill="#4B5A6B" text-anchor="middle" data-maxw="262" data-tag="Attachment pipeline">plain-text re-screen</text>
<rect x="344.0" y="342.0" width="294.0" height="154.0" rx="12" fill="#FFFFFF" stroke="#B7C5D4" stroke-width="2"/>
<text x="491.0" y="380.4" font-size="27" font-weight="700" fill="#16202B" text-anchor="middle" data-maxw="262" data-tag="Model Armor">Model Armor</text>
<text x="491.0" y="410.4" font-size="26" fill="#4B5A6B" text-anchor="middle" data-maxw="262" data-tag="Model Armor">civicnexus-armor</text>
<text x="491.0" y="442.4" font-size="26" fill="#4B5A6B" text-anchor="middle" data-maxw="262" data-tag="Model Armor">4 screening points</text>
<text x="491.0" y="474.4" font-size="26" fill="#4B5A6B" text-anchor="middle" data-maxw="262" data-tag="Model Armor">before any model</text>
<rect x="344.0" y="578.0" width="294.0" height="154.0" rx="12" fill="#FDF1EF" stroke="#B3261E" stroke-width="2.5"/>
<text x="491.0" y="616.4" font-size="27" font-weight="700" fill="#16202B" text-anchor="middle" data-maxw="262" data-tag="Quarantined">Quarantined</text>
<text x="491.0" y="646.4" font-size="26" fill="#4B5A6B" text-anchor="middle" data-maxw="262" data-tag="Quarantined">locked GCS bucket</text>
<text x="491.0" y="678.4" font-size="26" fill="#4B5A6B" text-anchor="middle" data-maxw="262" data-tag="Quarantined">byte-identical copy</text>
<text x="491.0" y="710.4" font-size="26" fill="#4B5A6B" text-anchor="middle" data-maxw="262" data-tag="Quarantined">Firestore incidents/</text>
<line x1="491.0" y1="308.0" x2="491.0" y2="342.0" stroke="#2C5F9E" stroke-width="3" stroke-linecap="round" marker-end="url(#ah-flow)"/>
<line x1="491.0" y1="496.0" x2="491.0" y2="578.0" stroke="#B3261E" stroke-width="3" stroke-linecap="round" marker-end="url(#ah-danger)"/>
<polyline points="292.0,617.0 318.0,617.0 318.0,231.0 344.0,231.0" fill="none" stroke="#2C5F9E" stroke-width="3" stroke-linejoin="round" stroke-linecap="round" marker-end="url(#ah-flow)"/>
<rect x="690.0" y="154.0" width="402.0" height="90.0" rx="12" fill="#FFFFFF" stroke="#B7C5D4" stroke-width="2"/>
<text x="891.0" y="192.4" font-size="27" font-weight="700" fill="#16202B" text-anchor="middle" data-maxw="370" data-tag="Agent registry">Agent registry</text>
<text x="891.0" y="222.4" font-size="26" fill="#4B5A6B" text-anchor="middle" data-maxw="370" data-tag="Agent registry">Cloud Run, private</text>
<rect x="690.0" y="282.0" width="402.0" height="340.0" rx="14" fill="#FFFFFF" stroke="#2E5A85" stroke-width="2.5"/>
<text x="891.0" y="322.0" font-size="28" font-weight="700" fill="#16202B" text-anchor="middle" data-maxw="370" data-tag="agentengine">Vertex AI Agent Engine</text>
<text x="891.0" y="354.0" font-size="26" fill="#4B5A6B" text-anchor="middle" data-maxw="370" data-tag="agentengine">one service account per agent</text>
<line x1="712" y1="370" x2="1070" y2="370" stroke="#E1E8EE" stroke-width="2"/>
<rect x="702.0" y="380.0" width="378.0" height="70.0" rx="9" fill="#F4F8FC" stroke="#C6D4E2" stroke-width="1.6"/>
<text x="891.0" y="411.0" font-size="27" font-weight="700" fill="#16202B" text-anchor="middle" data-maxw="354" data-tag="chip">caseflow</text>
<text x="891.0" y="440.0" font-size="26" fill="#4B5A6B" text-anchor="middle" data-maxw="354" data-tag="chip">coordinator · intake · zoning</text>
<rect x="702.0" y="456.0" width="378.0" height="42.0" rx="9" fill="#F4F8FC" stroke="#C6D4E2" stroke-width="1.6"/>
<text x="891.0" y="485" font-size="26" text-anchor="middle" fill="#4B5A6B" data-maxw="354" data-tag="chip"><tspan font-weight="700" fill="#16202B">safety</tspan> · fire + hazard review</text>
<rect x="702.0" y="504.0" width="378.0" height="42.0" rx="9" fill="#F4F8FC" stroke="#C6D4E2" stroke-width="1.6"/>
<text x="891.0" y="533" font-size="26" text-anchor="middle" fill="#4B5A6B" data-maxw="354" data-tag="chip"><tspan font-weight="700" fill="#16202B">letters</tspan> · drafts only, no send</text>
<rect x="702.0" y="552.0" width="378.0" height="42.0" rx="9" fill="#F4F8FC" stroke="#C6D4E2" stroke-width="1.6"/>
<text x="891.0" y="581" font-size="26" text-anchor="middle" fill="#4B5A6B" data-maxw="354" data-tag="chip"><tspan font-weight="700" fill="#16202B">treepres</tspan> · hot-added mid-run</text>
<rect x="690.0" y="652.0" width="402.0" height="84.0" rx="12" fill="#EEF3F9" stroke="#A6BACE" stroke-width="2"/>
<text x="891.0" y="687.4" font-size="27" font-weight="700" fill="#16202B" text-anchor="middle" data-maxw="370" data-tag="Vertex AI RAG corpus">Vertex AI RAG corpus</text>
<text x="891.0" y="717.4" font-size="26" fill="#4B5A6B" text-anchor="middle" data-maxw="370" data-tag="Vertex AI RAG corpus">Monrovia municipal code, 17.44</text>
<line x1="891.0" y1="244.0" x2="891.0" y2="282.0" stroke="#2C5F9E" stroke-width="3" stroke-linecap="round" marker-end="url(#ah-flow)"/>
<line x1="891.0" y1="652.0" x2="891.0" y2="622.0" stroke="#2C5F9E" stroke-width="3" stroke-linecap="round" marker-end="url(#ah-flow)"/>
<text x="905.0" y="271.0" font-size="23" font-weight="700" fill="#2C5F9E" data-maxw="190" data-tag="edge">approved cards</text>
<text x="905.0" y="645.0" font-size="23" font-weight="700" fill="#2C5F9E" data-maxw="190" data-tag="edge">verbatim quotes</text>
<rect x="1144.0" y="284.0" width="356.0" height="322.0" rx="14" fill="#FFFFFF" stroke="#2E5A85" stroke-width="2.5"/>
<text x="1322.0" y="328.0" font-size="28" font-weight="700" fill="#16202B" text-anchor="middle" data-maxw="324" data-tag="verifier">Groundedness verifier</text>
<text x="1322.0" y="362.0" font-size="26" fill="#4B5A6B" text-anchor="middle" data-maxw="324" data-tag="verifier">§7.3 — six-step check</text>
<circle cx="1212.0" cy="410" r="17" fill="#F4F8FC" stroke="#2E5A85" stroke-width="2"/>
<text x="1212.0" y="418.0" font-size="22" font-weight="700" fill="#2E5A85" text-anchor="middle" data-tag="step">1</text>
<circle cx="1256.0" cy="410" r="17" fill="#F4F8FC" stroke="#2E5A85" stroke-width="2"/>
<text x="1256.0" y="418.0" font-size="22" font-weight="700" fill="#2E5A85" text-anchor="middle" data-tag="step">2</text>
<circle cx="1300.0" cy="410" r="17" fill="#F4F8FC" stroke="#2E5A85" stroke-width="2"/>
<text x="1300.0" y="418.0" font-size="22" font-weight="700" fill="#2E5A85" text-anchor="middle" data-tag="step">3</text>
<circle cx="1344.0" cy="410" r="17" fill="#F4F8FC" stroke="#2E5A85" stroke-width="2"/>
<text x="1344.0" y="418.0" font-size="22" font-weight="700" fill="#2E5A85" text-anchor="middle" data-tag="step">4</text>
<circle cx="1388.0" cy="410" r="17" fill="#F4F8FC" stroke="#2E5A85" stroke-width="2"/>
<text x="1388.0" y="418.0" font-size="22" font-weight="700" fill="#2E5A85" text-anchor="middle" data-tag="step">5</text>
<circle cx="1432.0" cy="410" r="17" fill="#F4F8FC" stroke="#2E5A85" stroke-width="2"/>
<text x="1432.0" y="418.0" font-size="22" font-weight="700" fill="#2E5A85" text-anchor="middle" data-tag="step">6</text>
<text x="1322.0" y="470.0" font-size="26" font-weight="700" fill="#16202B" text-anchor="middle" data-maxw="324" data-tag="verifier">byte-exact citation check</text>
<text x="1322.0" y="502.0" font-size="26" font-weight="700" fill="#16202B" text-anchor="middle" data-maxw="324" data-tag="verifier">Gemma decidability judge</text>
<line x1="1170" y1="522" x2="1474" y2="522" stroke="#E1E8EE" stroke-width="2"/>
<text x="1322.0" y="554.0" font-size="26" fill="#4B5A6B" text-anchor="middle" data-maxw="324" data-tag="verifier">fail → critique + retry</text>
<text x="1322.0" y="586.0" font-size="26" fill="#4B5A6B" text-anchor="middle" data-maxw="324" data-tag="verifier">2nd fail → human + report</text>
<rect x="1552.0" y="154.0" width="346.0" height="180.0" rx="12" fill="#FFFFFF" stroke="#0B6B4F" stroke-width="4"/>
<text x="1725.0" y="207.2" font-size="32" font-weight="700" fill="#0B6B4F" text-anchor="middle" data-maxw="314" data-tag="Clerk console">Clerk console</text>
<text x="1725.0" y="237.2" font-size="26" fill="#16202B" text-anchor="middle" data-maxw="314" data-tag="Clerk console">Cloud Run · IAM-gated</text>
<text x="1725.0" y="269.2" font-size="26" fill="#16202B" text-anchor="middle" data-maxw="314" data-tag="Clerk console">one named human invokes</text>
<text x="1725.0" y="301.2" font-size="26" fill="#16202B" text-anchor="middle" data-maxw="314" data-tag="Clerk console">approve · deny · issue</text>
<rect x="1552.0" y="366.0" width="346.0" height="140.0" rx="12" fill="#FFFFFF" stroke="#0B6B4F" stroke-width="3"/>
<text x="1725.0" y="413.4" font-size="27" font-weight="700" fill="#16202B" text-anchor="middle" data-maxw="314" data-tag="approvals/ row">approvals/ row</text>
<text x="1725.0" y="443.4" font-size="26" fill="#4B5A6B" text-anchor="middle" data-maxw="314" data-tag="approvals/ row">Firestore · write-once</text>
<text x="1725.0" y="475.4" font-size="26" fill="#4B5A6B" text-anchor="middle" data-maxw="314" data-tag="approvals/ row">checked by the write guard</text>
<rect x="1613.0" y="538.0" width="224.0" height="66.0" rx="33" fill="#0B6B4F" stroke="#0B6B4F" stroke-width="2"/>
<text x="1725.0" y="582.0" font-size="32" font-weight="700" fill="#FFFFFF" text-anchor="middle" data-maxw="200" data-tag="issued">ISSUED</text>
<line x1="1725.0" y1="334.0" x2="1725.0" y2="366.0" stroke="#0B6B4F" stroke-width="3" stroke-linecap="round" marker-end="url(#ah-gate)"/>
<line x1="1725.0" y1="506.0" x2="1725.0" y2="538.0" stroke="#0B6B4F" stroke-width="3" stroke-linecap="round" marker-end="url(#ah-gate)"/>
<text x="1725.0" y="660.0" font-size="27" font-weight="700" fill="#0B6B4F" text-anchor="middle" font-style="italic" data-maxw="314" data-tag="caption">Autonomy everywhere</text>
<text x="1725.0" y="696.0" font-size="27" font-weight="700" fill="#0B6B4F" text-anchor="middle" font-style="italic" data-maxw="314" data-tag="caption">except the signature.</text>
<line x1="638.0" y1="419.0" x2="690.0" y2="419.0" stroke="#2C5F9E" stroke-width="3" stroke-linecap="round" marker-end="url(#ah-flow)"/>
<line x1="1092.0" y1="419.0" x2="1144.0" y2="419.0" stroke="#2C5F9E" stroke-width="3" stroke-linecap="round" marker-end="url(#ah-flow)"/>
<line x1="1500.0" y1="300.0" x2="1552.0" y2="300.0" stroke="#2C5F9E" stroke-width="3" stroke-linecap="round" marker-end="url(#ah-flow)"/>
<rect x="612.3" y="399.8" width="87.4" height="30.7" rx="10.56" fill="#FFFFFF" stroke="#2C5F9E" stroke-width="1.6"/>
<text x="656.0" y="427.4" font-size="24" font-weight="700" fill="#2C5F9E" text-anchor="middle" data-tag="edge">clean</text>
<rect x="368.8" y="517.8" width="244.4" height="30.7" rx="10.56" fill="#FFFFFF" stroke="#B3261E" stroke-width="1.6"/>
<text x="491.0" y="545.4" font-size="24" font-weight="700" fill="#B3261E" text-anchor="middle" data-tag="edge">match — contained</text>
<rect x="678.0" y="792.0" width="1232.0" height="92.0" rx="14" fill="#EEF3F9" stroke="#A6BACE" stroke-width="2.5"/>
<text x="1294.0" y="832.0" font-size="30" font-weight="700" fill="#16202B" text-anchor="middle" data-maxw="1192" data-tag="casestore">Firestore  cases/  —  CaseStore</text>
<text x="1294.0" y="866.0" font-size="26" fill="#4B5A6B" text-anchor="middle" data-maxw="1192" data-tag="casestore">single writer · every state transition guarded · append-only case record</text>
<line x1="891.0" y1="755.0" x2="891.0" y2="789.0" stroke="#78889A" stroke-width="2.5" stroke-linecap="round" marker-end="url(#ah-grey)" stroke-dasharray="7 6"/>
<line x1="891.0" y1="789.0" x2="891.0" y2="755.0" stroke="#78889A" stroke-width="2.5" stroke-linecap="round" marker-end="url(#ah-grey)" stroke-dasharray="7 6"/>
<line x1="1322.0" y1="755.0" x2="1322.0" y2="789.0" stroke="#78889A" stroke-width="2.5" stroke-linecap="round" marker-end="url(#ah-grey)" stroke-dasharray="7 6"/>
<line x1="1322.0" y1="789.0" x2="1322.0" y2="755.0" stroke="#78889A" stroke-width="2.5" stroke-linecap="round" marker-end="url(#ah-grey)" stroke-dasharray="7 6"/>
<line x1="1725.0" y1="755.0" x2="1725.0" y2="789.0" stroke="#78889A" stroke-width="2.5" stroke-linecap="round" marker-end="url(#ah-grey)" stroke-dasharray="7 6"/>
<line x1="1725.0" y1="789.0" x2="1725.0" y2="755.0" stroke="#78889A" stroke-width="2.5" stroke-linecap="round" marker-end="url(#ah-grey)" stroke-dasharray="7 6"/>
<rect x="10" y="908" width="640" height="110" rx="14" fill="#FFFFFF" stroke="#D5DEE7" stroke-width="2" stroke-dasharray="9 7"/>
<text x="330.0" y="946.0" font-size="28" font-weight="700" fill="#16202B" text-anchor="middle" data-maxw="600" data-tag="dur">Durability</text>
<text x="330.0" y="978.0" font-size="26" fill="#4B5A6B" text-anchor="middle" data-maxw="600" data-tag="dur">Cloud Tasks → Pub/Sub  timer.fired  (+ DLQ)</text>
<text x="330.0" y="1008.0" font-size="26" fill="#4B5A6B" text-anchor="middle" data-maxw="600" data-tag="dur">Vertex AI Memory Bank — recall across gaps</text>
<rect x="678.0" y="908.0" width="1232.0" height="110.0" rx="14" fill="#FFFFFF" stroke="#B7C5D4" stroke-width="2"/>
<text x="1294.0" y="956.0" font-size="28" font-weight="700" fill="#16202B" text-anchor="middle" data-maxw="1192" data-tag="reader">Public read-only console</text>
<text x="1294.0" y="992.0" font-size="26" fill="#4B5A6B" text-anchor="middle" data-maxw="1192" data-tag="reader">Cloud Run (allUsers) · service account holds roles/datastore.viewer only — cannot write, cannot spend</text>
<line x1="1294.0" y1="884.0" x2="1294.0" y2="908.0" stroke="#2C5F9E" stroke-width="3" stroke-linecap="round" marker-end="url(#ah-flow)"/>
<text x="18.0" y="1050.0" font-size="24" fill="#4B5A6B" data-maxw="900" data-tag="foot">All infrastructure Terraform-managed  ·  synthetic data only</text>
<text x="1902.0" y="1050.0" font-size="24" fill="#4B5A6B" text-anchor="end" data-maxw="900" data-tag="foot">Deviations from spec: docs/ARCHITECTURE_DELTAS.md</text>
</svg>
